<svg width="27" height="27" viewBox="0 0 27 27" fill="none" xmlns="http://www.w3.org/2000/svg">
<path d="M24.9994 25.5543L24.9375 25.6127C23.3599 27.189 20.8027 27.189 19.225 25.6127L1.36584 7.74739C-0.211791 6.17104 -0.211791 3.61191 1.36584 2.03557L1.42774 1.97718C3.00537 0.400835 5.56255 0.400835 7.14018 1.97718L24.9994 19.8425C26.577 21.4188 26.577 23.9779 24.9994 25.5543Z" fill="#929497"/>
<path d="M1.36584 25.5543L1.42774 25.6127C3.00537 27.189 5.56255 27.189 7.14018 25.6127L24.9994 7.74739C26.577 6.17104 26.577 3.61191 24.9994 2.03557L24.9375 1.97718C23.3599 0.400835 20.8027 0.400835 19.225 1.97718L1.36584 19.8425C-0.211791 21.4188 -0.211791 23.9779 1.36584 25.5543Z" fill="#929497"/>
</svg>
