<?xml version="1.0" ?><svg xmlns="http://www.w3.org/2000/svg" xmlns:xlink="http://www.w3.org/1999/xlink" version="1.1" viewBox="0 0 512 512" style="enable-background:new 0 0 512 512;" xml:space="preserve"><style type="text/css">
	.st0{fill:#231A15;}
	.st1{fill:#FFE000;}
	.st2{fill:#BCA100;}
	.st3{fill:#FC0000;}
	.st4{fill:#AA0000;}
	.st5{fill:#F94343;}
	.st6{fill:#FFFFFF;}
	.st7{fill:#A58E07;}
	.st8{opacity:0.44;}
	.st9{fill:#756204;}
	.st10{opacity:0.64;}
	.st11{opacity:0.38;}
	.st12{fill:#5D5004;}
	.st13{fill:#B7A100;}
	.st14{fill:#1D4DFC;}
	.st15{fill:#143CAF;}
	.st16{opacity:0.59;}
	.st17{opacity:0.52;}
	.st18{fill:#FF7F1F;}
	.st19{fill:#C4570C;}
	.st20{fill:#B29904;}
	.st21{fill:#87720A;}
	.st22{fill:#DDDDDD;}
	.st23{opacity:0.51;}
	.st24{fill:#878787;}
	.st25{fill:#727272;}
	.st26{opacity:0.33;}
	.st27{opacity:0.46;}
	.st28{fill:#25CBF2;}
	.st29{fill:#0A8FA5;}
	.st30{opacity:0.58;}
	.st31{fill:#04889E;}
	.st32{fill:#035A63;}
	.st33{opacity:0.65;}
	.st34{opacity:0.39;}
	.st35{fill:#AB0000;}
	.st36{fill:#1987A1;}
	.st37{fill:#3F1F0A;}
	.st38{fill:#4DEEFF;}
	.st39{fill:#21B9C1;}
	.st40{fill:#BBF9FF;}
	.st41{fill:#64ACAF;}
	.st42{fill:#089FB7;}
	.st43{opacity:0.47;}
	.st44{opacity:0.42;}
	.st45{fill:#DBF7FC;}
	.st46{fill:#B2E7ED;}
	.st47{fill:#0FA2BA;}
	.st48{opacity:0.54;}
	.st49{fill:#8E7716;}
	.st50{fill:#191401;}
	.st51{fill:#382E02;}
	.st52{fill:#605106;}
	.st53{fill:#AFACA0;}
	.st54{fill:#BC0404;}
	.st55{fill:#750000;}
	.st56{fill:#A08B0D;}
	.st57{fill:#5B4C05;}
	.st58{opacity:0.4;}
	.st59{opacity:0.5;}
	.st60{fill:#FF8383;}
	.st61{fill:#FFF0A6;}
	.st62{fill:#E2C227;}
	.st63{fill:#AA9205;}
	.st64{fill:#FFEA71;}
	.st65{opacity:0.22;}
	.st66{fill:#B19B00;}
	.st67{fill:#1989A4;}
	.st68{fill:#13A0B7;}
	.st69{fill:#C4A805;}
	.st70{fill:#FFF3A9;}
	.st71{fill:#846E03;}
	.st72{fill:#2D2502;}
	.st73{opacity:0.36;}
	.st74{fill:#4DD307;}
	.st75{fill:#328402;}
	.st76{fill:#97FF5A;}
	.st77{fill:#7A6500;}
	.st78{fill:#246001;}
	.st79{fill:#359100;}
	.st80{fill:#968022;}
	.st81{fill:#4F420B;}
	.st82{fill:#FFED83;}
	.st83{fill:#BAA335;}
	.st84{fill:#8D0991;}
	.st85{fill:#4B044F;}
	.st86{fill:#CE15CE;}
	.st87{fill:#897502;}
	.st88{fill:#493D01;}
	.st89{fill:#C9C9C9;}
	.st90{fill:#2D280E;}
	.st91{fill:#378C06;}
	.st92{fill:#183A03;}
	.st93{fill:#94FF55;}
	.st94{fill:#2E7F04;}
	.st95{fill:#63AB39;}
	.st96{fill:#AA5F04;}
	.st97{fill:#633502;}
	.st98{fill:#EF9014;}
	.st99{fill:#A05A07;}
	.st100{fill:#05616B;}
	.st101{fill:#033335;}
	.st102{fill:#0E94AA;}
	.st103{fill:#035D66;}
	.st104{opacity:0.27;}
	.st105{opacity:0.43;}
	.st106{fill:#FFF203;}
	.st107{fill:#FFA300;}
	.st108{fill:#2B3030;}
	.st109{opacity:0.28;}
	.st110{fill:#FCD17A;}
	.st111{fill:#AF853A;}
	.st112{opacity:0.31;}
	.st113{fill:#B641FF;}
	.st114{fill:#700FBC;}
	.st115{fill:#F2D0B1;}
	.st116{fill:#AF835F;}
	.st117{fill:#C17540;}
	.st118{fill:#F2BA94;}
	.st119{fill:#592909;}
	.st120{fill:#2B1204;}
	.st121{fill:#894818;}
	.st122{fill:#512609;}
	.st123{fill:#FF7F15;}
	.st124{fill:#A04A0A;}
	.st125{fill:#B7865E;}
	.st126{fill:#70350E;}
	.st127{fill:#3A1805;}
	.st128{fill:#C1521B;}
	.st129{fill:#FFC7AE;}
	.st130{fill:#FF717F;}
	.st131{fill:#6E2F0F;}
	.st132{fill:#AC8675;}
	.st133{opacity:0.25;}
	.st134{opacity:0.32;}
	.st135{fill:#FFFCC5;}
	.st136{fill:#D1CA78;}
	.st137{fill:#D37733;}
	.st138{fill:#A04F18;}
	.st139{fill:#0ABFBA;}
	.st140{fill:#057F79;}
	.st141{fill:#15F9F9;}
	.st142{fill:#09B2AD;}
	.st143{fill:#B2B2B2;}
	.st144{fill:#FFF755;}
	.st145{fill:#BCB121;}
	.st146{fill:#F90368;}
	.st147{opacity:0.49;}
	.st148{fill:#B50857;}
	.st149{fill:#FF76B4;}
	.st150{fill:#F23091;}
	.st151{fill:#FFF800;}
	.st152{fill:#C9BF05;}
	.st153{fill:#FF8500;}
	.st154{fill:#A35507;}
	.st155{fill:#AA6E50;}
	.st156{fill:#723C25;}
	.st157{fill:#EAD4B9;}
	.st158{fill:#AA8D6F;}
	.st159{fill:#B7A8A5;}
	.st160{fill:#84726F;}
	.st161{fill:#77645F;}
	.st162{fill:#51403C;}
	.st163{fill:#EABBA7;}
	.st164{fill:#BC7F69;}
	.st165{fill:#7C5039;}
	.st166{fill:#442619;}
	.st167{fill:#B7AE04;}
	.st168{fill:#BAB108;}
	.st169{fill:#7A7105;}
	.st170{fill:#352B23;}
	.st171{fill:#050403;}
	.st172{fill:#706255;}
	.st173{fill:#44382E;}
	.st174{fill:#634319;}
	.st175{fill:#35210A;}
	.st176{fill:#2D1C08;}
	.st177{fill:#0A0601;}
	.st178{fill:#9E7443;}
	.st179{fill:#704D2A;}
	.st180{fill:#D8A73A;}
	.st181{fill:#A0741C;}
	.st182{fill:#3F2F28;}
	.st183{fill:#211410;}
	.st184{fill:#FF326C;}
	.st185{fill:#BC0749;}
	.st186{fill:#68390E;}
	.st187{fill:#A5632D;}
	.st188{fill:#3D1E05;}
	.st189{fill:#331A06;}
	.st190{fill:#110801;}
	.st191{fill:#160A02;}
	.st192{fill:#663514;}
	.st193{opacity:0.29;}
	.st194{fill:#FC001F;}
	.st195{fill:#AF021F;}
	.st196{fill:#C48622;}
	.st197{fill:#8C5910;}
	.st198{fill:#846D64;}
	.st199{fill:#513B35;}
	.st200{fill:#5B4842;}
	.st201{fill:#332522;}
	.st202{fill:#47332C;}
	.st203{fill:#543E38;}
	.st204{fill:#1E1412;}
	.st205{fill:#604C43;}
	.st206{fill:#D3896C;}
	.st207{fill:#FF001F;}
	.st208{fill:#AF0824;}
	.st209{fill:#A37462;}
	.st210{fill:#5E3E34;}
	.st211{fill:#874A38;}
	.st212{fill:#4C2218;}
	.st213{fill:#5B2B20;}
	.st214{fill:#210C09;}
	.st215{fill:#99001A;}
	.st216{fill:#A08A07;}
	.st217{fill:#A08904;}
	.st218{fill:#5B4C02;}
	.st219{fill:#CECAB7;}
	.st220{fill:#727068;}
	.st221{fill:#42403A;}
	.st222{fill:#B2B0A6;}
	.st223{fill:#726F62;}
	.st224{fill:#6B4F45;}
	.st225{fill:#3A261F;}
	.st226{fill:#777468;}
	.st227{fill:#474436;}
	.st228{fill:#B78B7D;}
	.st229{fill:#845A4E;}
	.st230{fill:#3A372D;}
	.st231{fill:#43CFFF;}
	.st232{fill:#13A0BC;}
</style><g id="_x31_8"><g><path class="st0" d="M436.94,479.13h-97.22c-3.47,0-6.69-1.8-8.51-4.75s-1.98-6.64-0.42-9.74c3.83-7.62,5.78-15.83,5.78-24.38    c0-29.99-24.4-54.39-54.39-54.39c-0.92,0-1.85,0.03-2.79,0.08c-6.01,8.95-9.17,19.31-9.17,30.21c0,8.56,1.94,16.76,5.78,24.38    c2.39,4.76,0.64,10.56-3.99,13.19l-42.43,24.11c-1.51,0.86-3.21,1.31-4.94,1.31h-87.57c-5.52,0-10-4.48-10-10v-89.56    c-9.36,4.15-19.5,6.29-30.02,6.29c-12.32,0-24.53-3.08-35.32-8.91c-0.19-0.1-0.38-0.21-0.57-0.32l-0.16-0.09    c-0.68-0.38-1.35-0.76-2.02-1.16c-0.34-0.2-0.67-0.4-1-0.61c-0.69-0.43-1.37-0.86-2.05-1.31l-0.14-0.09    c-0.22-0.15-0.44-0.29-0.66-0.44c-0.75-0.51-1.47-1.03-2.19-1.56c-0.3-0.22-0.61-0.45-0.91-0.69c-0.59-0.45-1.19-0.92-1.77-1.39    l-0.16-0.13c-0.18-0.14-0.36-0.29-0.54-0.44c-0.75-0.63-1.49-1.27-2.22-1.92c-0.23-0.2-0.45-0.41-0.67-0.62l-0.12-0.11    c-0.54-0.5-1.08-1.01-1.6-1.53l-0.19-0.18c-0.17-0.17-0.35-0.34-0.52-0.51c-0.7-0.7-1.38-1.42-2.04-2.15    c-0.17-0.18-0.33-0.37-0.49-0.55l-0.15-0.17c-0.5-0.56-1-1.13-1.48-1.71l-0.1-0.12c-0.19-0.22-0.37-0.44-0.55-0.66    c-0.63-0.77-1.25-1.56-1.85-2.36c-0.13-0.17-0.24-0.32-0.35-0.48l-0.11-0.15c-0.48-0.66-0.95-1.32-1.41-1.99    c-0.19-0.27-0.38-0.55-0.56-0.83c-0.56-0.85-1.12-1.71-1.65-2.58l-0.21-0.36c-0.48-0.79-0.93-1.59-1.38-2.4    c-0.16-0.29-0.31-0.57-0.47-0.86c-0.43-0.8-0.84-1.61-1.24-2.43l-0.21-0.42c-0.45-0.94-0.88-1.89-1.29-2.86    c-0.1-0.24-0.21-0.49-0.31-0.74l-0.04-0.11c-0.33-0.81-0.65-1.62-0.96-2.44l-0.23-0.62c-0.35-0.96-0.69-1.97-1.02-3.02    c-0.07-0.21-0.13-0.42-0.19-0.64l-0.05-0.17c-0.25-0.81-0.49-1.66-0.71-2.5l-0.2-0.74c-0.27-1.07-0.52-2.13-0.73-3.17l-0.13-0.66    c-0.18-0.91-0.34-1.8-0.48-2.7l-0.13-0.84c-0.18-1.18-0.31-2.26-0.42-3.29c-0.01-0.14-0.03-0.29-0.04-0.43    c-0.1-1-0.17-1.98-0.23-2.96c-0.02-0.3-0.03-0.6-0.05-0.9c-0.06-1.28-0.08-2.36-0.08-3.4c0-27.3,14.9-52.34,38.9-65.39    c0.01,0,0.02-0.01,0.02-0.01l37.54-21.19c2.69-1.74,5.48-3.31,8.28-4.65c0.05-0.03,0.11-0.05,0.16-0.08    c6.22-2.96,12.75-5.02,19.51-6.15v-44.77c0-3.6,1.93-6.92,5.06-8.69l42.43-24.11c1.51-0.86,3.21-1.31,4.94-1.31h28.4    c-0.06-1.26-0.1-2.51-0.1-3.77c0-28.77,16.79-55.14,42.82-67.36l31.27-17.63c4.23-2.97,8.73-5.49,13.4-7.5    c0.03-0.01,0.07-0.03,0.1-0.04v0c9.26-3.96,19.1-5.97,29.23-5.97c41.02,0,74.39,33.37,74.39,74.39c0,9.68-1.84,19.1-5.4,27.88    h85.77c5.52,0,10,4.48,10,10v88.22c0,3.6-1.93,6.92-5.06,8.69l-42.43,24.11c-3.25,1.85-7.26,1.73-10.39-0.31    c-8.82-5.73-19.05-8.76-29.59-8.76c-0.93,0-1.86,0.03-2.81,0.08c-6,8.94-9.15,19.3-9.15,30.21c0,0.92,0.02,1.86,0.07,2.8    c0.01,0.16,0.02,0.33,0.04,0.5l0.09,1.17c0.02,0.36,0.05,0.72,0.08,1.08c0.03,0.3,0.07,0.6,0.11,0.9l0.15,1.17    c0.02,0.21,0.05,0.42,0.08,0.63c0.06,0.42,0.14,0.84,0.22,1.26l0.18,1.01c0.02,0.13,0.04,0.26,0.07,0.38    c0.12,0.57,0.25,1.13,0.39,1.69l0.21,0.92c0.17,0.67,0.37,1.33,0.56,1.98c0.05,0.16,0.1,0.33,0.14,0.5l0.03,0.11    c0.2,0.66,0.44,1.36,0.69,2.05l0.15,0.44c0.25,0.7,0.54,1.43,0.84,2.15l0.13,0.33c0.31,0.74,0.64,1.45,0.97,2.16    c0.03,0.06,0.08,0.16,0.12,0.25c0.34,0.71,0.71,1.44,1.1,2.17c0.02,0.04,0.04,0.07,0.06,0.11c0.01,0.02,0.02,0.04,0.03,0.06    c2.43,4.5,5.52,8.68,9.17,12.38c10.31,10.45,24.06,16.2,38.72,16.2c9.01,0,17.6-2.15,25.53-6.38c0.66-0.35,1.32-0.72,1.96-1.1    c0.02-0.01,0.13-0.08,0.16-0.09c0.66-0.39,1.31-0.78,1.94-1.19c3.07-2,7-2.15,10.22-0.41c3.22,1.75,5.23,5.12,5.23,8.79v103.65    c0,3.6-1.93,6.92-5.06,8.69l-42.43,24.11C440.37,478.68,438.67,479.13,436.94,479.13z M354.15,459.13h80.15l35.07-19.93v-81.8    c-8.01,2.86-16.5,4.35-25.04,4.35c-20.05,0-38.86-7.87-52.95-22.16c-5-5.06-9.23-10.8-12.6-17.05c-0.03-0.05-0.06-0.12-0.09-0.18    c-0.53-1-1.04-2-1.52-3c0,0,0-0.01-0.01-0.01c-0.05-0.1-0.1-0.21-0.14-0.31c-0.48-1.01-0.92-1.99-1.32-2.95    c-0.06-0.14-0.12-0.28-0.17-0.44c-0.44-1.05-0.81-2.01-1.14-2.92c-0.07-0.18-0.13-0.37-0.19-0.55c-0.34-0.95-0.66-1.91-0.96-2.88    c-0.07-0.22-0.13-0.45-0.2-0.68l-0.03-0.11c-0.27-0.89-0.53-1.8-0.76-2.72c-0.07-0.27-0.13-0.55-0.2-0.83l-0.08-0.36    c-0.19-0.79-0.38-1.58-0.54-2.38c-0.07-0.33-0.13-0.67-0.19-1.01l-0.13-0.71c-0.12-0.64-0.23-1.27-0.33-1.91    c-0.06-0.42-0.12-0.85-0.17-1.28l-0.11-0.85c-0.07-0.52-0.14-1.04-0.19-1.56c-0.06-0.58-0.1-1.16-0.14-1.74l-0.06-0.84    c-0.03-0.39-0.06-0.78-0.08-1.17c-0.06-1.27-0.1-2.55-0.1-3.8c0-16.83,5.49-32.71,15.87-45.92c1.62-2.06,3.99-3.41,6.6-3.74    c3.23-0.41,6.43-0.62,9.5-0.62c12.33,0,24.36,3.03,35.13,8.82l32.33-18.37v-72.4h-92.7c-3.76,0-7.21-2.11-8.91-5.47    c-1.71-3.35-1.38-7.38,0.83-10.42c6.81-9.35,10.41-20.41,10.41-31.99c0-29.99-24.4-54.39-54.39-54.39    c-7.39,0-14.55,1.46-21.3,4.33c-0.03,0.01-0.06,0.03-0.09,0.04c-3.54,1.52-6.96,3.45-10.17,5.73c-0.29,0.21-0.59,0.4-0.9,0.57    l-31.42,17.72c-0.38,0.24-0.79,0.46-1.21,0.66c-19.28,8.85-31.74,28.26-31.74,49.45c0,3.89,0.42,7.81,1.26,11.63    c0.65,2.96-0.08,6.05-1.98,8.4c-1.9,2.36-4.76,3.73-7.79,3.73h-37.15l-35.07,19.93v47.97c0,5.37-4.24,9.78-9.61,9.99l-0.74,0.03    c-7.23,0.36-14.18,2.11-20.64,5.2c-0.03,0.02-0.07,0.03-0.1,0.05c-2.09,1-4.17,2.18-6.2,3.51c-0.18,0.12-0.37,0.23-0.56,0.34    l-37.64,21.24c-0.11,0.06-0.22,0.13-0.33,0.19c-17.63,9.53-28.59,27.88-28.59,47.89c0,0.74,0.02,1.53,0.06,2.5l0.03,0.67    c0.04,0.72,0.09,1.44,0.16,2.15l0.03,0.33c0.08,0.81,0.19,1.61,0.31,2.4l0.1,0.6c0.11,0.67,0.22,1.32,0.35,1.97l0.09,0.5    c0.16,0.77,0.34,1.54,0.53,2.3l0.15,0.54c0.16,0.62,0.34,1.23,0.52,1.84l0.18,0.58c0.23,0.74,0.48,1.47,0.74,2.2l0.18,0.46    c0.22,0.59,0.45,1.18,0.7,1.77l0.26,0.61c0.3,0.7,0.61,1.4,0.94,2.09l0.15,0.3c0.3,0.61,0.6,1.2,0.92,1.79l0.34,0.63    c0.32,0.58,0.66,1.17,1.01,1.75l0.18,0.3c0.37,0.6,0.77,1.23,1.19,1.85l0.42,0.61c0.34,0.49,0.68,0.98,1.03,1.46l0.34,0.46    c0.43,0.57,0.89,1.15,1.35,1.72l0.47,0.56c0.36,0.43,0.73,0.85,1.09,1.26l0.47,0.53c0.49,0.53,0.99,1.06,1.5,1.57l0.52,0.51    c0.38,0.38,0.77,0.75,1.17,1.12l0.58,0.53c0.53,0.48,1.08,0.95,1.63,1.41l0.51,0.41c0.44,0.35,0.87,0.69,1.3,1.02    c0.22,0.17,0.44,0.34,0.66,0.5c0.54,0.39,1.07,0.77,1.61,1.14l0.59,0.39c0.5,0.33,0.99,0.65,1.5,0.96    c0.24,0.15,0.49,0.3,0.73,0.45c0.49,0.29,0.98,0.57,1.47,0.85l0.54,0.3c7.87,4.25,16.79,6.5,25.8,6.5    c12.4,0,24.09-4.08,33.8-11.79c3-2.39,7.11-2.85,10.57-1.18c3.46,1.67,5.65,5.17,5.65,9.01v97.23h74.93l32.39-18.41    c-2.77-7.86-4.16-16.09-4.16-24.58c0-16.82,5.49-32.7,15.89-45.93c1.62-2.07,3.99-3.41,6.6-3.74c3.23-0.41,6.42-0.62,9.48-0.62    c41.02,0,74.39,33.37,74.39,74.39C356.56,446.71,355.75,453.02,354.15,459.13z"/></g><g><g><path class="st54" d="M418.94,228.18l18,29.28l42.43-24.11v-88.22h-102.7c7.75-10.63,12.33-23.71,12.33-37.88     c0-35.56-28.83-64.39-64.39-64.39c-8.98,0-17.53,1.84-25.29,5.16l0,0l-0.03,0.02c-4.27,1.83-8.3,4.12-12.04,6.79l-31.9,17.99     l10.57,7.98c-3.64,8.07-5.69,17.02-5.69,26.46c0,14.16,4.58,27.24,12.33,37.88h-93.06l-42.43,24.11l24.32,20.36l18.11-3.49v50.83     c-10.99-8.73-24.89-13.96-40.02-13.96c-9.92,0-19.32,2.25-27.71,6.26l0,0l-0.03,0.02c-2.58,1.23-5.06,2.64-7.43,4.2l-37.81,21.34     l11.54,13.27l0,0c-1.91,6.1-2.95,12.58-2.95,19.31c0,35.56,28.83,64.39,64.39,64.39c15.13,0,29.03-5.23,40.02-13.96v107.23h24.76     l-1.72,5.57l22.11,18.54l42.43-24.11c-4.37-8.69-6.84-18.49-6.84-28.88c0-35.56,28.83-64.39,64.39-64.39     c35.56,0,64.39,28.83,64.39,64.39c0,10.39-2.47,20.19-6.84,28.88h44.37c-1.21,3.29-2.01,5.57-2.01,5.57l12.43,18.54l42.43-24.11     V341.38c-10.09,6.56-22.11,10.38-35.04,10.38c-35.56,0-64.39-28.83-64.39-64.39C379.94,260.82,396,238.03,418.94,228.18z"/></g><g><path class="st55" d="M354.76,359.26c-9-4.78-19.26-7.5-30.16-7.5c-35.56,0-64.39,28.83-64.39,64.39     c0,10.39,2.47,20.19,6.84,28.88l-42.43,24.11l-22.11-18.54l1.72-5.57h-24.76V337.79c-10.99,8.73-24.89,13.96-40.02,13.96     c-35.56,0-64.39-28.83-64.39-64.39c0-6.73,1.04-13.22,2.95-19.31l0,0l-4.09-4.71L93.65,256l41.91-32.91     c1.29-0.08,2.58-0.12,3.89-0.12c15.13,0,29.03,5.23,40.02,13.96v-50.83l-18.11,3.49l-8.13-6.81c0,0,0,0,0,0l102.93,1.88     c0,0-15.72-21.37-30.62-39.54h46.99c-7.75-10.63-12.33-23.71-12.33-37.88c0-9.43,2.04-18.38,5.69-26.46l-10.57-7.98l31.9-17.99     c3.74-2.67,7.77-4.96,12.04-6.79l0.03-0.02l0,0c7.77-3.32,16.31-5.16,25.29-5.16c35.56,0,64.39,28.83,64.39,64.39     c0,14.16-4.58,27.24-12.33,37.88l-42.43,24.11l13.03,38.57l89.68-38.57l42.43-24.11v88.22l-42.43,24.11l-18-29.28     c-22.94,9.85-39,32.64-39,59.19c0,17.62,7.09,33.59,18.56,45.21L354.76,359.26z M433.82,368.16c0,0-35.32,36.12-46,35.76     c0,0-0.01,0-0.01,0c0.76,3.96,1.18,8.05,1.18,12.23c0,10.39-2.47,20.19-6.84,28.88h44.37c-1.21,3.29-2.01,5.57-2.01,5.57     l12.43,18.54l42.43-24.11V341.38c-1.55,1.01-3.16,1.95-4.8,2.82L433.82,368.16z"/></g><g><path class="st3" d="M401.9,247.08c12.92,0,24.95,3.82,35.04,10.38v-88.22h-102.7c7.75-10.63,12.33-23.71,12.33-37.88     c0-35.56-28.83-64.39-64.39-64.39c-35.56,0-64.39,28.83-64.39,64.39c0,14.16,4.58,27.24,12.33,37.88h-93.06v91.8     c-10.99-8.73-24.89-13.96-40.02-13.96c-35.56,0-64.39,28.83-64.39,64.39c0,35.56,28.83,64.39,64.39,64.39     c15.13,0,29.03-5.23,40.02-13.96v107.23h87.57c-4.37-8.69-6.84-18.49-6.84-28.88c0-35.56,28.83-64.39,64.39-64.39     c35.56,0,64.39,28.83,64.39,64.39c0,10.39-2.47,20.19-6.84,28.88h97.22V365.49c-10.09,6.56-22.11,10.38-35.04,10.38     c-35.56,0-64.39-28.83-64.39-64.39C337.51,275.91,366.34,247.08,401.9,247.08z"/></g><g class="st44"><path class="st6" d="M137.04,361.9l10.62,107.23h-10.62V361.9z M436.94,169.24h-102.7l102.7,10.31V169.24z M247.9,175.87     c-3.03-0.12-25.01-28.95-19.24-64.49c4.77-29.39,48.13-38.57,69.2-42.48c-5.02-1.26-10.27-1.93-15.69-1.93     c-35.56,0-64.39,28.83-64.39,64.39c0,14.16,4.58,27.24,12.33,37.88h-93.06v91.8c-10.99-8.73-24.89-13.96-40.02-13.96     c-35.56,0-64.39,28.83-64.39,64.39c0,24.5,13.69,45.8,33.83,56.69c-0.14-0.12-27.76-22.57-21.03-67.78     c6.75-45.32,66.54-64.61,103.18-25.07l-3.63-99.43C144.98,175.88,244.31,175.78,247.9,175.87z"/></g></g></g></svg>